<svg xmlns="http://www.w3.org/2000/svg" xmlns:xlink="http://www.w3.org/1999/xlink" width="1366" zoomAndPan="magnify" viewBox="0 0 1024.5 217.5" height="290" preserveAspectRatio="xMidYMid meet" version="1.0"><defs><g/></defs><g fill="#000000" fill-opacity="1"><g transform="translate(-8.07642, 180.799991)"><g><path d="M 55.71875 1.453125 C 39.238281 1.453125 25.1875 -4.359375 13.5625 -15.984375 L 17.203125 -19.625 C 27.367188 -8.96875 40.207031 -3.640625 55.71875 -3.640625 C 64.4375 -3.640625 71.539062 -5.492188 77.03125 -9.203125 C 82.519531 -12.753906 85.265625 -16.304688 85.265625 -19.859375 C 85.265625 -24.054688 83.566406 -27.285156 80.171875 -29.546875 C 77.109375 -31.804688 70.570312 -35.035156 60.5625 -39.234375 L 52.328125 -42.875 C 42.304688 -47.238281 35.035156 -50.710938 30.515625 -53.296875 C 17.597656 -60.554688 11.140625 -70.972656 11.140625 -84.546875 C 11.140625 -91.804688 13.484375 -98.101562 18.171875 -103.4375 C 22.847656 -108.601562 29.144531 -112.394531 37.0625 -114.8125 C 43.6875 -116.75 50.066406 -117.71875 56.203125 -117.71875 C 72.347656 -117.71875 86.234375 -111.90625 97.859375 -100.28125 L 94.234375 -96.65625 C 83.566406 -107.3125 70.804688 -112.640625 55.953125 -112.640625 C 48.367188 -112.640625 41.910156 -111.265625 36.578125 -108.515625 C 31.085938 -105.609375 27.9375 -102.625 27.125 -99.5625 C 26.96875 -99.070312 26.890625 -98.265625 26.890625 -97.140625 C 26.890625 -93.421875 28.988281 -90.191406 33.1875 -87.453125 C 37.21875 -84.703125 44.320312 -81.226562 54.5 -77.03125 L 61.765625 -74.125 C 76.953125 -67.820312 87.9375 -61.925781 94.71875 -56.4375 C 101.332031 -50.789062 104.640625 -43.847656 104.640625 -35.609375 C 104.640625 -27.210938 101.410156 -19.785156 94.953125 -13.328125 C 85.097656 -3.472656 72.019531 1.453125 55.71875 1.453125 Z M 55.71875 1.453125 "/></g></g></g><g fill="#000000" fill-opacity="1"><g transform="translate(107.469143, 180.799991)"><g><path d="M 125.484375 -65.890625 L 125.484375 0 L 92.78125 0 L 92.78125 -72.90625 C 92.78125 -98.257812 87.207031 -110.9375 76.0625 -110.9375 C 71.21875 -110.9375 66.695312 -108.921875 62.5 -104.890625 C 58.300781 -100.847656 55.472656 -95.757812 54.015625 -89.625 C 52.890625 -84.945312 52.328125 -76.066406 52.328125 -62.984375 L 52.328125 0 L 19.625 0 L 19.625 -159.390625 L 52.328125 -159.390625 L 52.328125 -102.21875 C 59.585938 -112.550781 69.679688 -117.71875 82.609375 -117.71875 C 95.679688 -117.71875 106.015625 -113.441406 113.609375 -104.890625 C 121.523438 -96.003906 125.484375 -83.003906 125.484375 -65.890625 Z M 125.484375 -65.890625 "/></g></g></g><g fill="#000000" fill-opacity="1"><g transform="translate(252.567255, 180.799991)"><g><path d="M 98.59375 -116.265625 L 131.296875 -116.265625 L 131.296875 0 L 98.59375 0 L 98.59375 -4.84375 C 89.875 -0.644531 80.910156 1.453125 71.703125 1.453125 C 55.234375 1.453125 41.179688 -4.359375 29.546875 -15.984375 C 17.921875 -27.609375 12.109375 -41.660156 12.109375 -58.140625 C 12.109375 -74.609375 17.921875 -88.65625 29.546875 -100.28125 C 41.179688 -111.90625 55.234375 -117.71875 71.703125 -117.71875 C 81.390625 -117.71875 90.351562 -115.539062 98.59375 -111.1875 Z M 98.59375 -10.65625 L 98.59375 -105.609375 C 90.03125 -110.296875 81.066406 -112.640625 71.703125 -112.640625 C 63.460938 -112.640625 57.40625 -109.570312 53.53125 -103.4375 C 50.144531 -98.101562 48.046875 -92.207031 47.234375 -85.75 C 46.265625 -79.125 45.78125 -69.921875 45.78125 -58.140625 C 45.78125 -49.097656 46.1875 -40.535156 47 -32.453125 C 47.644531 -25.515625 49.90625 -18.894531 53.78125 -12.59375 C 57.65625 -6.625 63.628906 -3.640625 71.703125 -3.640625 C 81.066406 -3.640625 90.03125 -5.976562 98.59375 -10.65625 Z M 98.59375 -10.65625 "/></g></g><g transform="translate(403.479021, 180.799991)"><g><path d="M 19.625 -159.390625 L 52.328125 -159.390625 L 52.328125 -111.1875 C 60.554688 -115.539062 69.515625 -117.71875 79.203125 -117.71875 C 95.679688 -117.71875 109.734375 -111.90625 121.359375 -100.28125 C 132.984375 -88.65625 138.796875 -74.609375 138.796875 -58.140625 C 138.796875 -41.984375 132.984375 -27.929688 121.359375 -15.984375 C 109.734375 -4.359375 95.679688 1.453125 79.203125 1.453125 C 70.003906 1.453125 61.046875 -0.644531 52.328125 -4.84375 L 52.328125 0 L 19.625 0 Z M 79.203125 -3.640625 C 87.441406 -3.640625 93.335938 -6.625 96.890625 -12.59375 C 100.285156 -18.25 102.46875 -24.382812 103.4375 -31 C 104.40625 -37.625 104.890625 -46.671875 104.890625 -58.140625 C 104.890625 -67.503906 104.484375 -76.0625 103.671875 -83.8125 C 103.023438 -90.914062 100.847656 -97.457031 97.140625 -103.4375 C 93.421875 -109.570312 87.441406 -112.640625 79.203125 -112.640625 C 69.359375 -112.640625 60.398438 -110.296875 52.328125 -105.609375 L 52.328125 -10.65625 C 60.398438 -5.976562 69.359375 -3.640625 79.203125 -3.640625 Z M 79.203125 -3.640625 "/></g></g><g transform="translate(554.390788, 180.799991)"><g><path d="M 95.6875 -113.84375 L 93.75 -109.25 C 88.257812 -111.507812 82.847656 -112.640625 77.515625 -112.640625 C 72.179688 -112.640625 67.5 -111.101562 63.46875 -108.03125 C 59.425781 -104.800781 56.679688 -101.085938 55.234375 -96.890625 C 53.296875 -91.398438 52.328125 -83.890625 52.328125 -74.359375 L 52.328125 0 L 19.625 0 L 19.625 -116.265625 L 52.328125 -116.265625 L 52.328125 -107.546875 C 59.429688 -114.328125 67.828125 -117.71875 77.515625 -117.71875 C 83.328125 -117.71875 89.382812 -116.425781 95.6875 -113.84375 Z M 95.6875 -113.84375 "/></g></g><g transform="translate(659.762567, 180.799991)"><g><path d="M 54.5 0 L 22.046875 0 L 22.046875 -116.265625 L 54.5 -116.265625 Z M 38.265625 -128.390625 C 33.742188 -128.390625 29.867188 -130.003906 26.640625 -133.234375 C 23.410156 -136.296875 21.796875 -140.085938 21.796875 -144.609375 C 21.796875 -148.972656 23.410156 -152.769531 26.640625 -156 C 29.867188 -159.226562 33.742188 -160.84375 38.265625 -160.84375 C 42.628906 -160.84375 46.425781 -159.226562 49.65625 -156 C 52.882812 -152.769531 54.5 -148.972656 54.5 -144.609375 C 54.5 -140.085938 52.96875 -136.296875 49.90625 -133.234375 C 46.675781 -130.003906 42.796875 -128.390625 38.265625 -128.390625 Z M 38.265625 -128.390625 "/></g></g><g transform="translate(736.066269, 180.799991)"><g><path d="M 125.484375 -65.890625 L 125.484375 0 L 92.78125 0 L 92.78125 -72.90625 C 92.78125 -98.257812 87.207031 -110.9375 76.0625 -110.9375 C 71.375 -110.9375 66.851562 -108.921875 62.5 -104.890625 C 58.132812 -100.691406 55.304688 -95.601562 54.015625 -89.625 C 52.890625 -84.945312 52.328125 -76.066406 52.328125 -62.984375 L 52.328125 0 L 19.625 0 L 19.625 -116.265625 L 52.328125 -116.265625 L 52.328125 -102.21875 C 59.429688 -112.550781 69.441406 -117.71875 82.359375 -117.71875 C 95.765625 -117.71875 106.179688 -113.441406 113.609375 -104.890625 C 121.523438 -96.003906 125.484375 -83.003906 125.484375 -65.890625 Z M 125.484375 -65.890625 "/></g></g></g><g fill="#000000" fill-opacity="1"><g transform="translate(881.164385, 180.799991)"><g><path d="M 98.59375 -116.265625 L 131.296875 -116.265625 L 131.296875 0 L 98.59375 0 L 98.59375 -4.84375 C 89.875 -0.644531 80.910156 1.453125 71.703125 1.453125 C 55.234375 1.453125 41.179688 -4.359375 29.546875 -15.984375 C 17.921875 -27.609375 12.109375 -41.660156 12.109375 -58.140625 C 12.109375 -74.609375 17.921875 -88.65625 29.546875 -100.28125 C 41.179688 -111.90625 55.234375 -117.71875 71.703125 -117.71875 C 81.390625 -117.71875 90.351562 -115.539062 98.59375 -111.1875 Z M 98.59375 -10.65625 L 98.59375 -105.609375 C 90.03125 -110.296875 81.066406 -112.640625 71.703125 -112.640625 C 63.460938 -112.640625 57.40625 -109.570312 53.53125 -103.4375 C 50.144531 -98.101562 48.046875 -92.207031 47.234375 -85.75 C 46.265625 -79.125 45.78125 -69.921875 45.78125 -58.140625 C 45.78125 -49.097656 46.1875 -40.535156 47 -32.453125 C 47.644531 -25.515625 49.90625 -18.894531 53.78125 -12.59375 C 57.65625 -6.625 63.628906 -3.640625 71.703125 -3.640625 C 81.066406 -3.640625 90.03125 -5.976562 98.59375 -10.65625 Z M 98.59375 -10.65625 "/></g></g></g></svg>