<?xml version="1.0" encoding="UTF-8"?>
<svg version="1.1" xmlns="http://www.w3.org/2000/svg" width="1025" height="218">
<path d="M0 0 C11.22 0 22.44 0 34 0 C34.33 17.82 34.66 35.64 35 54 C37.97 51.36 40.94 48.72 44 46 C54.87064236 40.49587729 67.88981553 40.1144308 79.5625 43.5625 C88.49572097 47.08389416 94.89971573 52.95844751 100 61 C100.37898438 61.58007812 100.75796875 62.16015625 101.1484375 62.7578125 C107.91266336 74.50620478 107.42185883 89.20452501 107.29296875 102.30859375 C107.28735632 104.01351035 107.28309404 105.71843188 107.28010559 107.4233551 C107.26878619 111.85712631 107.23943434 116.29059101 107.20599365 120.72424316 C107.1695392 126.07258014 107.15606999 131.42102103 107.13863373 136.76944733 C107.10978589 144.84650977 107.05221011 152.92290301 107 161 C95.78 161 84.56 161 73 161 C72.98541748 158.40229736 72.97083496 155.80459473 72.95581055 153.12817383 C72.90525817 144.50274322 72.83862778 135.87748924 72.76428509 127.25223255 C72.71973907 122.0276274 72.68044897 116.8030974 72.65356445 111.57836914 C72.6273732 106.52722843 72.58686122 101.47637942 72.53681374 96.42542076 C72.52025129 94.50756167 72.5086714 92.58965225 72.50238609 90.67173195 C72.64278532 70.86903242 72.64278532 70.86903242 65 53 C60.71697874 50.14465249 57.02473086 50.40254725 52 51 C45.82474561 52.90564491 42.28936517 57.68102653 39 63 C35.27910493 70.31348341 34.85552133 77.46819282 34.79467773 85.50561523 C34.78477814 86.32593735 34.77487854 87.14625946 34.76467896 87.99143982 C34.73330115 90.68046261 34.70840118 93.36950301 34.68359375 96.05859375 C34.66300369 97.9318943 34.6420067 99.80519042 34.62062073 101.67848206 C34.56561186 106.59223831 34.51610975 111.50603502 34.46777344 116.41986084 C34.41740307 121.44075083 34.36179835 126.4615826 34.30664062 131.48242188 C34.19931841 141.32156653 34.09830073 151.16076107 34 161 C22.78 161 11.56 161 0 161 C0 107.87 0 54.74 0 0 Z " fill="#DD7F44" transform="translate(126,21)"/>
<path d="M0 0 C10.89 0 21.78 0 33 0 C33.33 15.51 33.66 31.02 34 47 C37.63 45.68 41.26 44.36 45 43 C56.4783873 40.70432254 70.0751611 40.47098061 81 45 C82.10472656 45.45246094 83.20945312 45.90492187 84.34765625 46.37109375 C100.03139853 53.48765581 110.43445616 64.73850815 116.875 80.8125 C122.24833804 95.13547061 121.53009127 111.99230158 115.74609375 126.046875 C108.59377841 141.40388995 97.01980191 153.13067603 81 159 C80.1853125 159.31839844 79.370625 159.63679687 78.53125 159.96484375 C64.70709648 164.59422849 49.50679104 162.67759523 36 158 C35.34 157.67 34.68 157.34 34 157 C33.67 158.32 33.34 159.64 33 161 C22.11 161 11.22 161 0 161 C0 107.87 0 54.74 0 0 Z M33 55 C33 86.02 33 117.04 33 149 C43.94064178 154.47032089 54.81969219 158.32847466 67.203125 155.49609375 C74.04233645 152.89421983 77.85131004 147.55416637 80.79272461 141.1418457 C85.29994018 129.41214758 85.4566506 116.86292639 85.33618164 104.47216797 C85.31245855 101.87045429 85.31566704 99.26976451 85.32226562 96.66796875 C85.41734191 72.60628395 85.41734191 72.60628395 74.125 52.046875 C62.20581673 43.10748755 44.58091008 48.3823371 33 55 Z " fill="#DD7F44" transform="translate(423,21)"/>
<path d="M0 0 C10.64858992 7.64369682 15.91335003 17.85574503 18.70376587 30.45785522 C19.87834819 37.8955811 19.67693259 45.35201477 19.60546875 52.86328125 C19.5998597 54.61589694 19.59559581 56.36851741 19.59260559 58.12113953 C19.58125973 62.68974246 19.55188346 67.2580502 19.51849365 71.82653809 C19.48756898 76.50606292 19.47405284 81.18563638 19.45898438 85.86523438 C19.42700182 95.0144512 19.37593284 104.16345087 19.3125 113.3125 C14.63110746 113.33715288 9.94975241 113.35533739 5.26831055 113.36743164 C3.67455386 113.37247157 2.08080181 113.3793035 0.48706055 113.38793945 C-1.79900253 113.40001999 -4.08500467 113.40573155 -6.37109375 113.41015625 C-7.08776718 113.41531754 -7.80444061 113.42047882 -8.54283142 113.42579651 C-10.25813672 113.42599263 -11.97331266 113.37442007 -13.6875 113.3125 C-15.71373188 111.28626812 -14.84159182 107.09344589 -14.84521484 104.3112793 C-14.85029556 103.47209457 -14.85537628 102.63290985 -14.86061096 101.76829529 C-14.87134305 99.9376449 -14.879952 98.10698117 -14.88673019 96.27631187 C-14.89850427 93.37023944 -14.91795876 90.46431664 -14.93984985 87.55830383 C-15.00147669 79.29242009 -15.05529898 71.02654692 -15.08886719 62.76049805 C-15.10993838 57.70822791 -15.1453537 52.6562227 -15.18962479 47.604105 C-15.20370193 45.68541419 -15.21248831 43.76667642 -15.21567917 41.84793663 C-15.15819161 22.64471258 -15.15819161 22.64471258 -22.6875 5.3125 C-26.9828932 2.44890454 -30.6488686 2.6087387 -35.6875 3.3125 C-42.56517408 5.80248394 -46.32137963 11.05795951 -49.6875 17.3125 C-52.56905418 24.17334328 -52.83640924 31.36582543 -52.89282227 38.72631836 C-52.90272186 39.5368869 -52.91262146 40.34745544 -52.92282104 41.18258667 C-52.95419417 43.83914352 -52.97909693 46.4957182 -53.00390625 49.15234375 C-53.02449671 51.0032241 -53.04549371 52.85409998 -53.06687927 54.70497131 C-53.12188395 59.5595434 -53.17138787 64.4141564 -53.21972656 69.26879883 C-53.27010002 74.22936615 -53.32570312 79.18987459 -53.38085938 84.15039062 C-53.48817645 93.87104516 -53.58919567 103.59175014 -53.6875 113.3125 C-64.9075 113.3125 -76.1275 113.3125 -87.6875 113.3125 C-87.6875 74.3725 -87.6875 35.4325 -87.6875 -4.6875 C-76.4675 -4.6875 -65.2475 -4.6875 -53.6875 -4.6875 C-53.1925 0.7575 -53.1925 0.7575 -52.6875 6.3125 C-51.429375 5.075 -50.17125 3.8375 -48.875 2.5625 C-35.64431311 -8.98874985 -14.73316051 -9.04192292 0 0 Z " fill="#DD7F44" transform="translate(843.6875,68.6875)"/>
<path d="M0 0 C0.87857666 0.00273926 1.75715332 0.00547852 2.66235352 0.00830078 C11.22773406 0.14600532 18.29898285 2.11257241 26.1875 5.3125 C26.5175 3.9925 26.8475 2.6725 27.1875 1.3125 C38.0775 1.3125 48.9675 1.3125 60.1875 1.3125 C61.00354441 4.57667766 61.31299102 6.79745759 61.31448364 10.07670593 C61.31871338 11.50898529 61.31871338 11.50898529 61.32302856 12.97019958 C61.31999222 14.53122154 61.31999222 14.53122154 61.31689453 16.1237793 C61.31952301 17.77547623 61.31952301 17.77547623 61.32220459 19.46054077 C61.32660849 23.10261609 61.32369083 26.74464293 61.3203125 30.38671875 C61.32098581 32.91209421 61.32195607 35.43746961 61.32321167 37.96284485 C61.32468654 43.25461504 61.32263542 48.54636779 61.31787109 53.83813477 C61.31242071 59.96278711 61.31419816 66.08740622 61.3196975 72.21205777 C61.32477353 78.10031137 61.32424774 83.9885546 61.32131577 89.87681007 C61.32064645 92.38517067 61.32147506 94.8935321 61.32379532 97.40189171 C61.32631986 100.89775252 61.32248446 104.39354836 61.31689453 107.8894043 C61.31891876 108.93615829 61.32094299 109.98291229 61.32302856 111.06138611 C61.32020874 112.00777954 61.31738892 112.95417297 61.31448364 113.929245 C61.3139181 115.17002068 61.3139181 115.17002068 61.31334114 116.43586254 C61.1875 118.3125 61.1875 118.3125 60.1875 119.3125 C57.73919574 119.40093793 55.31929401 119.42778752 52.87109375 119.41015625 C51.77451195 119.40803383 51.77451195 119.40803383 50.65577698 119.40586853 C48.31214368 119.40025408 45.96860461 119.38769922 43.625 119.375 C42.03971492 119.36998686 40.45442834 119.36542363 38.86914062 119.36132812 C34.9752239 119.35027997 31.08137795 119.33300572 27.1875 119.3125 C26.8575 117.9925 26.5275 116.6725 26.1875 115.3125 C25.46304688 115.58964844 24.73859375 115.86679688 23.9921875 116.15234375 C22.54199219 116.69568359 22.54199219 116.69568359 21.0625 117.25 C19.63550781 117.78947266 19.63550781 117.78947266 18.1796875 118.33984375 C3.70799352 123.04408892 -13.50172402 121.26719162 -27.0234375 114.76953125 C-41.55855395 106.76972534 -53.00045442 94.42354765 -57.8125 78.3125 C-58.03550781 77.57257813 -58.25851562 76.83265625 -58.48828125 76.0703125 C-62.31420706 60.61044903 -60.25749901 43.91599819 -52.625 30 C-42.94742847 14.68061017 -29.68166682 4.93070112 -11.99902344 0.70288086 C-8.0093672 -0.00943048 -4.04317389 -0.02549923 0 0 Z M-14.375 11.25 C-25.22170382 24.87790993 -25.15130217 40.48442649 -25.07324219 57.09619141 C-25.06251841 59.80784459 -25.07319532 62.51883553 -25.0859375 65.23046875 C-25.17842651 88.22526694 -25.17842651 88.22526694 -15.25 108.375 C-14.0434375 109.3340625 -14.0434375 109.3340625 -12.8125 110.3125 C-12.131875 110.89 -11.45125 111.4675 -10.75 112.0625 C-4.40379233 116.15682753 4.97084127 114.98236089 11.9765625 113.5234375 C20.11024912 111.49175238 20.11024912 111.49175238 27.1875 107.3125 C27.67237244 104.14381766 27.82075422 101.51253901 27.75512695 98.34301758 C27.75622215 96.96710701 27.75622215 96.96710701 27.75733948 95.56340027 C27.7538522 92.5273452 27.71493691 89.49281872 27.67578125 86.45703125 C27.66645719 84.35382424 27.65933916 82.25060638 27.65434265 80.14738464 C27.63524094 74.60851114 27.58611227 69.07029199 27.53082275 63.53167725 C27.47969898 57.88123426 27.45684327 52.23068566 27.43164062 46.58007812 C27.37799704 35.49059773 27.29264546 24.40160325 27.1875 13.3125 C25.61286677 12.50224083 24.03550492 11.69728315 22.45703125 10.89453125 C21.57893799 10.4456958 20.70084473 9.99686035 19.79614258 9.53442383 C9.00769413 4.48096716 -4.69013739 3.927299 -14.375 11.25 Z " fill="#DD7D43" transform="translate(953.8125,62.6875)"/>
<path d="M0 0 C0.86866699 -0.00056396 1.73733398 -0.00112793 2.63232422 -0.00170898 C10.94016081 0.13841397 18.8686264 1.6218132 26.375 5.375 C26.705 4.055 27.035 2.735 27.375 1.375 C38.265 1.375 49.155 1.375 60.375 1.375 C60.375 40.315 60.375 79.255 60.375 119.375 C49.485 119.375 38.595 119.375 27.375 119.375 C27.045 118.055 26.715 116.735 26.375 115.375 C25.65054688 115.65214844 24.92609375 115.92929688 24.1796875 116.21484375 C22.72949219 116.75818359 22.72949219 116.75818359 21.25 117.3125 C19.82300781 117.85197266 19.82300781 117.85197266 18.3671875 118.40234375 C2.52326673 123.5526522 -14.86971268 120.73352899 -29.41943359 113.40917969 C-43.4116327 105.85979257 -52.69072309 93.28871336 -57.625 78.375 C-62.10059521 62.16447132 -60.46635333 45.72626281 -53 30.6875 C-44.02689289 15.37910873 -30.62221843 6.21753864 -13.859375 1.26171875 C-9.24131665 0.15944588 -4.73344685 -0.00779886 0 0 Z M-16.625 14.375 C-24.25459553 24.02419435 -24.77763971 36.27970538 -24.79296875 48.10546875 C-24.79629715 49.01774734 -24.79962555 49.93002594 -24.80305481 50.86994934 C-24.80809223 52.79195659 -24.81046413 54.71397249 -24.81030273 56.63598633 C-24.81248068 59.53677232 -24.83064721 62.43717214 -24.84960938 65.33789062 C-25.12054824 89.57365744 -25.12054824 89.57365744 -13.75 110.33203125 C-7.3210876 115.13986014 -0.32699816 114.88603305 7.375 114.375 C14.91979501 113.11133975 20.41403331 110.85548334 27.375 107.375 C27.375 76.355 27.375 45.335 27.375 13.375 C13.21517802 6.29508901 -4.67321188 0.48508408 -16.625 14.375 Z " fill="#DD7E44" transform="translate(323.625,62.625)"/>
<path d="M0 0 C1.27742463 1.03357299 2.55092965 2.07213388 3.8125 3.125 C3.5 5 3.5 5 2.8125 7.125 C1.8225 7.785 0.8325 8.445 -0.1875 9.125 C-0.90292969 8.53332031 -1.61835937 7.94164063 -2.35546875 7.33203125 C-15.6602188 -3.21882487 -29.30477673 -7.10066784 -46.1875 -5.875 C-52.43542919 -4.78979135 -57.09864465 -2.56442013 -62.1875 1.125 C-62.8475 1.125 -63.5075 1.125 -64.1875 1.125 C-65.57703075 3.90406151 -66.18356176 5.93990252 -66.25 9.0625 C-64.31345504 14.64430606 -59.22025984 17.76215577 -54.0859375 20.36328125 C-52.58374909 21.06682309 -51.07559394 21.75772954 -49.5625 22.4375 C-48.33503052 23.00597656 -48.33503052 23.00597656 -47.08276367 23.5859375 C-41.82122378 26.0007766 -36.5045228 28.27049674 -31.1652832 30.50708008 C3.62080241 45.09767145 3.62080241 45.09767145 9.96484375 59.18359375 C12.30198367 67.29357698 12.17342556 76.61429782 8.1328125 84.14453125 C-0.14740674 96.56486011 -11.29141294 103.61801413 -25.74755859 106.71704102 C-29.83274404 107.40008533 -33.86567375 107.46514766 -38 107.4375 C-38.8751123 107.43258545 -39.75022461 107.4276709 -40.65185547 107.42260742 C-55.2151492 107.16009658 -68.56180536 102.36139117 -79.1875 92.125 C-80.4375 89.91015625 -80.4375 89.91015625 -81.1875 88.125 C-80.1975 87.135 -79.2075 86.145 -78.1875 85.125 C-75.0462838 86.57424293 -72.44864105 88.36204231 -69.6875 90.4375 C-57.19686031 99.30122801 -43.24039015 102.00627121 -28.234375 99.6640625 C-21.95072977 97.98447179 -14.53554874 94.8074988 -10.9296875 89.15234375 C-9.73370755 85.8854301 -10.35749268 83.44502929 -11.1875 80.125 C-14.15363227 76.52777576 -17.47305386 74.72936617 -21.625 72.6875 C-22.29168701 72.3582251 -22.95837402 72.0289502 -23.64526367 71.68969727 C-28.48310527 69.33702296 -33.3842489 67.13428259 -38.3046875 64.9609375 C-38.93417801 64.68211227 -39.56366852 64.40328705 -40.2122345 64.11601257 C-43.37534905 62.71628798 -46.54248541 61.32746876 -49.71850586 59.95727539 C-62.44928797 54.36901167 -75.31620268 48.13720427 -81.4609375 35.01953125 C-84.46647838 27.18250261 -84.83005314 15.89920422 -81.5625 8.0625 C-75.71337937 -2.67452213 -67.49931514 -7.39478396 -56.1171875 -11.078125 C-36.14057835 -16.51176269 -16.28771619 -12.57208094 0 0 Z " fill="#DC7F45" transform="translate(85.1875,75.875)"/>
<path d="M0 0 C-0.33 1.98 -0.66 3.96 -1 6 C-7.57940663 5.11431065 -7.57940663 5.11431065 -9.8828125 4.48828125 C-17.67340393 2.69155813 -24.96063307 3.47969216 -31.875 7.46875 C-38.90065951 12.53135759 -40.63143901 19.74067499 -42 28 C-42.56614457 34.78856353 -42.48947407 41.61481305 -42.51171875 48.421875 C-42.52859308 50.37771715 -42.54674696 52.33354864 -42.56611633 54.28936768 C-42.61332359 59.39868842 -42.64332144 64.50796592 -42.66955566 69.61743164 C-42.69951001 74.84660377 -42.7459887 80.07562728 -42.79101562 85.3046875 C-42.87671524 95.53639706 -42.9426775 105.76809208 -43 116 C-54.22 116 -65.44 116 -77 116 C-77 77.06 -77 38.12 -77 -2 C-65.78 -2 -54.56 -2 -43 -2 C-43 0.31 -43 2.62 -43 5 C-42.35933594 4.59007813 -41.71867188 4.18015625 -41.05859375 3.7578125 C-39.76115234 2.94957031 -39.76115234 2.94957031 -38.4375 2.125 C-37.59058594 1.59132813 -36.74367188 1.05765625 -35.87109375 0.5078125 C-25.04901931 -5.17561707 -11.14702006 -4.50168118 0 0 Z " fill="#DD7F44" transform="translate(651,66)"/>
<path d="M0 0 C11.22 0 22.44 0 34 0 C34.02254755 15.23763332 34.04097948 30.47525916 34.05181217 45.71290493 C34.056975 52.78753187 34.06401744 59.86214774 34.07543945 66.93676758 C34.08644681 73.75778878 34.09227618 80.57879844 34.09487724 87.39982796 C34.09673205 90.00866948 34.1003537 92.61751033 34.10573006 95.22634697 C34.11293643 98.86632552 34.11399111 102.50625575 34.11352539 106.14624023 C34.11712067 107.23668137 34.12071594 108.3271225 34.12442017 109.4506073 C34.1230455 110.43643799 34.12167084 111.42226868 34.12025452 112.43797302 C34.12117631 113.29984946 34.1220981 114.1617259 34.12304783 115.04971981 C34 117 34 117 33 118 C22.11 118 11.22 118 0 118 C0 79.06 0 40.12 0 0 Z " fill="#DD7E44" transform="translate(682,64)"/>
<path d="M0 0 C4.69446495 1.971021 8.03104196 5.29637802 10 10 C11.18234722 15.63888675 11.2608429 19.55342391 9 25 C4.83303094 30.09296218 0.68532907 32.69681769 -5.875 33.4375 C-11.83043369 33.18650471 -16.43064864 30.69007069 -20.4375 26.375 C-23.70900014 21.40231979 -23.59628965 16.85523305 -23 11 C-18.0550949 0.92704516 -10.48357851 -1.19314385 0 0 Z " fill="#DC7F45" transform="translate(705,20)"/>
<path d="M0 0 C0.33 0 0.66 0 1 0 C2.03561142 4.27553408 2.17038517 8.44455747 2.20532227 12.81958008 C2.21522186 13.59084229 2.22512146 14.36210449 2.23532104 15.15673828 C2.26679198 17.6943052 2.29163622 20.23189082 2.31640625 22.76953125 C2.33698823 24.53358941 2.35798503 26.29764278 2.37937927 28.06169128 C2.43447145 32.69599516 2.48393723 37.33034259 2.53222656 41.96472168 C2.58253564 46.6972235 2.63817253 51.42966237 2.69335938 56.16210938 C2.80078368 65.44135438 2.90177076 74.7206531 3 84 C12.57 84 22.14 84 32 84 C32 56.61 32 29.22 32 1 C32.33 1 32.66 1 33 1 C33.81680286 5.98554942 34.13968338 10.80762153 34.11352539 15.86303711 C34.11367142 16.61508423 34.11381744 17.36713135 34.1139679 18.14196777 C34.11327662 20.60379011 34.10552131 23.06553479 34.09765625 25.52734375 C34.09578928 27.2436977 34.09436669 28.96005219 34.09336853 30.67640686 C34.08956533 35.17592867 34.07975398 39.67541779 34.06866455 44.17492676 C34.05659625 49.58319676 34.05203772 54.99147775 34.04621124 60.39975739 C34.03654092 68.59986094 34.01736902 76.79989287 34 85 C22.78 85 11.56 85 0 85 C0 56.95 0 28.9 0 0 Z " fill="#CA8255" transform="translate(199,97)"/>
<path d="M0 0 C0.95261719 0.34933594 1.90523438 0.69867188 2.88671875 1.05859375 C4.15357779 1.51841666 5.4205087 1.97804162 6.6875 2.4375 C7.31333984 2.66759766 7.93917969 2.89769531 8.58398438 3.13476562 C12.03242308 4.38053667 15.3813479 5.39804449 19 6 C19 6.33 19 6.66 19 7 C17.02 7 15.04 7 13 7 C13.33 7.99 13.66 8.98 14 10 C15.23363281 10.09087891 15.23363281 10.09087891 16.4921875 10.18359375 C23.339219 10.69751644 30.1719587 11.27558027 37 12 C37 12.33 37 12.66 37 13 C24.8847885 13.46948075 14.5558911 12.86923708 3 9 C3.33 8.34 3.66 7.68 4 7 C4.99 7 5.98 7 7 7 C6.14993914 4.73283571 6.14993914 4.73283571 3.5 4.0625 C2.675 3.711875 1.85 3.36125 1 3 C0.67 2.01 0.34 1.02 0 0 Z " fill="#D07F4E" transform="translate(456,170)"/>
<path d="M0 0 C0 0.66 0 1.32 0 2 C-2.31 2.33 -4.62 2.66 -7 3 C-7 3.33 -7 3.66 -7 4 C-8.65 4.33 -10.3 4.66 -12 5 C-10.12175109 6.87824891 -6.96064724 6.39102397 -4.4375 6.5625 C-3.23996094 6.64628906 -2.04242187 6.73007813 -0.80859375 6.81640625 C0.11824219 6.87699219 1.04507813 6.93757813 2 7 C2 7.33 2 7.66 2 8 C1.3709375 8.01417969 0.741875 8.02835938 0.09375 8.04296875 C-6.57347138 8.4144856 -10.67507857 10.05242545 -16 14 C-16.99 14.66 -17.98 15.32 -19 16 C-19 14.68 -19 13.36 -19 12 C-18.34 12 -17.68 12 -17 12 C-17 11.34 -17 10.68 -17 10 C-15.68 10 -14.36 10 -13 10 C-13.33 9.34 -13.66 8.68 -14 8 C-14.99 8 -15.98 8 -17 8 C-17.33 8.33 -17.66 8.66 -18 9 C-18.66 9.66 -19.32 10.32 -20 11 C-20.99 10.67 -21.98 10.34 -23 10 C-16.59427831 3.73662768 -9.20426025 -0.43196889 0 0 Z " fill="#CE7E4E" transform="translate(816,63)"/>
<path d="M0 0 C1.69576172 0.37511719 1.69576172 0.37511719 3.42578125 0.7578125 C6.76284496 1.52335598 6.76284496 1.52335598 9.73828125 1.8828125 C10.39828125 1.2228125 11.05828125 0.5628125 11.73828125 -0.1171875 C15.36328125 -0.2421875 15.36328125 -0.2421875 18.73828125 -0.1171875 C19.06828125 1.2028125 19.39828125 2.5228125 19.73828125 3.8828125 C15.77828125 3.8828125 11.81828125 3.8828125 7.73828125 3.8828125 C7.73828125 4.5428125 7.73828125 5.2028125 7.73828125 5.8828125 C6.0721622 5.9255335 4.4044524 5.92345082 2.73828125 5.8828125 C2.40828125 5.5528125 2.07828125 5.2228125 1.73828125 4.8828125 C0.05644177 4.64994242 -1.63296035 4.47017084 -3.32421875 4.3203125 C-4.24332031 4.23652344 -5.16242187 4.15273437 -6.109375 4.06640625 C-7.17478516 3.97552734 -7.17478516 3.97552734 -8.26171875 3.8828125 C-5.39048263 1.04928492 -4.12221104 -0.14810339 0 0 Z " fill="#DF7E43" transform="translate(948.26171875,177.1171875)"/>
<path d="M0 0 C3.0625 1.25 3.0625 1.25 6 3 C6.33 3.99 6.66 4.98 7 6 C9.01508358 6.73323796 9.01508358 6.73323796 11 7 C11.33 8.32 11.66 9.64 12 11 C7.12902623 10.88326642 3.91340529 10.6897142 -0.0625 7.6875 C-2 5 -2 5 -2 1 C-1.34 0.67 -0.68 0.34 0 0 Z " fill="#DA8241" transform="translate(17,168)"/>
<path d="M0 0 C-0.33 0.66 -0.66 1.32 -1 2 C-3.02543556 2.25719817 -5.05350224 2.50842122 -7.08984375 2.65625 C-9.23522156 2.85476212 -9.23522156 2.85476212 -11 5 C-10.34 5 -9.68 5 -9 5 C-9 5.66 -9 6.32 -9 7 C-6.36 7 -3.72 7 -1 7 C-1 7.33 -1 7.66 -1 8 C-1.73605469 8.10957031 -2.47210938 8.21914062 -3.23046875 8.33203125 C-10.55865231 9.46860121 -10.55865231 9.46860121 -17 13 C-17 9 -17 9 -15 7 C-15.99 6.34 -16.98 5.68 -18 5 C-16.75264433 4.3490741 -15.50198168 3.70448331 -14.25 3.0625 C-13.55390625 2.70285156 -12.8578125 2.34320313 -12.140625 1.97265625 C-8.01773637 0.09929992 -4.51512167 -0.1026164 0 0 Z " fill="#CE804E" transform="translate(187,63)"/>
<path d="M0 0 C6.8218683 -0.38614349 12.49577707 0.99134292 19 3 C17.71034824 4.37562854 16.37310707 5.70766393 15 7 C14.34 7 13.68 7 13 7 C13 5.68 13 4.36 13 3 C12.01 3 11.02 3 10 3 C10.66 5.31 11.32 7.62 12 10 C9.03 9.01 6.06 8.02 3 7 C3.99 6.01 4.98 5.02 6 4 C5.01 3.34 4.02 2.68 3 2 C2.01 1.34 1.02 0.68 0 0 Z " fill="#D0814C" transform="translate(485,63)"/>
<path d="M0 0 C1.99954746 -0.04254356 4.00041636 -0.04080783 6 0 C6.33 0.33 6.66 0.66 7 1 C9.98566707 1.04781849 12.95289552 1.04261718 15.9375 1 C22.70712139 0.94432981 29.27603384 1.11816837 36 2 C36 2.33 36 2.66 36 3 C24.31267322 5.33370132 11.19551248 5.22662044 0 1 C0 0.67 0 0.34 0 0 Z " fill="#CB804F" transform="translate(303,179)"/>
<path d="M0 0 C5.27315333 0.4452885 10.01770224 1.08373163 15 3 C14.67 4.98 14.34 6.96 14 9 C9.94393835 8.53199289 6.53411321 8.12046792 3 6 C3.99 5.67 4.98 5.34 6 5 C6.33 4.34 6.66 3.68 7 3 C4.69 2.67 2.38 2.34 0 2 C0 1.34 0 0.68 0 0 Z " fill="#CD804D" transform="translate(636,63)"/>
<path d="M0 0 C0.99 0 1.98 0 3 0 C3.103125 0.639375 3.20625 1.27875 3.3125 1.9375 C3.539375 2.618125 3.76625 3.29875 4 4 C4.99 4.33 5.98 4.66 7 5 C9.02350324 8.03525486 9.32124018 9.19426202 9.625 12.6875 C9.69976562 13.49574219 9.77453125 14.30398437 9.8515625 15.13671875 C9.92503906 16.05904297 9.92503906 16.05904297 10 17 C9.34 17 8.68 17 8 17 C7.67 17.66 7.34 18.32 7 19 C6.74476563 18.03900391 6.74476563 18.03900391 6.484375 17.05859375 C4.92028783 11.4761337 2.99091478 6.95047964 0 2 C0 1.34 0 0.68 0 0 Z " fill="#DB7E4A" transform="translate(499,75)"/>
<path d="M0 0 C7.73300788 -0.61864063 14.74204379 1.39018373 22 4 C22.66 4.66 23.32 5.32 24 6 C20.7 5.67 17.4 5.34 14 5 C14 5.99 14 6.98 14 8 C11.36 7.67 8.72 7.34 6 7 C6 6.67 6 6.34 6 6 C7.98 6 9.96 6 12 6 C12 4.68 12 3.36 12 2 C11.30132812 2.02320312 10.60265625 2.04640625 9.8828125 2.0703125 C8.97273438 2.08835937 8.06265625 2.10640625 7.125 2.125 C6.22007812 2.14820312 5.31515625 2.17140625 4.3828125 2.1953125 C2 2 2 2 0 0 Z " fill="#CE7F4D" transform="translate(326,63)"/>
<path d="M0 0 C3.75226508 3.24059257 4.8600643 6.5615912 5.3359375 11.453125 C5.42085802 19.70739961 5.34919477 27.39130673 -0.63671875 33.734375 C-1.08660156 34.15203125 -1.53648438 34.5696875 -2 35 C-1.58144003 31.65152025 -0.64337461 29.34513362 1.0625 26.5 C4.63465785 19.70513452 3.66034928 11.27583954 2 4 C1.34 4 0.68 4 0 4 C0 2.68 0 1.36 0 0 Z " fill="#CA7E51" transform="translate(91,130)"/>
<path d="M0 0 C0.66 0.33 1.32 0.66 2 1 C1.3125 3.4375 1.3125 3.4375 0 6 C-2.5625 6.6875 -2.5625 6.6875 -5 7 C-5.33 7.66 -5.66 8.32 -6 9 C-6.5775 9.12375 -7.155 9.2475 -7.75 9.375 C-10.7870374 10.2186215 -12.63688705 11.96509718 -15 14 C-13.44879203 9.96501261 -10.83438014 7.96684209 -7.5 5.3125 C-6.5203125 4.52488281 -5.540625 3.73726563 -4.53125 2.92578125 C-2 1 -2 1 0 0 Z " fill="#CF7F4F" transform="translate(294,70)"/>
<path d="M0 0 C0.33 0.99 0.66 1.98 1 3 C3.97 3.495 3.97 3.495 7 4 C6.67 5.32 6.34 6.64 6 8 C2.53058454 7.54177532 -0.67395049 7.10868317 -4 6 C-4.99 7.485 -4.99 7.485 -6 9 C-6.66 8.67 -7.32 8.34 -8 8 C-3.375 2.25 -3.375 2.25 0 0 Z " fill="#D37D4B" transform="translate(15,71)"/>
<path d="M0 0 C-0.66 1.98 -1.32 3.96 -2 6 C-1.34 6.33 -0.68 6.66 0 7 C-1.32 7.33 -2.64 7.66 -4 8 C-4 6.68 -4 5.36 -4 4 C-5.32 4 -6.64 4 -8 4 C-8 4.66 -8 5.32 -8 6 C-11.3 6 -14.6 6 -18 6 C-18 5.67 -18 5.34 -18 5 C-17.01257813 4.72285156 -16.02515625 4.44570312 -15.0078125 4.16015625 C-13.71351203 3.79437568 -12.41924281 3.42848451 -11.125 3.0625 C-10.47402344 2.88009766 -9.82304687 2.69769531 -9.15234375 2.50976562 C-0.29971591 0 -0.29971591 0 0 0 Z " fill="#CE814D" transform="translate(350,171)"/>
<path d="M0 0 C2.31 0 4.62 0 7 0 C7 0.66 7 1.32 7 2 C9.64 2 12.28 2 15 2 C14.34 3.32 13.68 4.64 13 6 C11.02 6 9.04 6 7 6 C7 5.34 7 4.68 7 4 C6.01 3.67 5.02 3.34 4 3 C2.64377755 2.03126968 1.30582947 1.03565785 0 0 Z " fill="#DC7C40" transform="translate(629,63)"/>
<path d="M0 0 C0.66 0 1.32 0 2 0 C2.33 0.66 2.66 1.32 3 2 C4.65 2 6.3 2 8 2 C9.24546405 4.49092811 8.7767578 5.41080733 8 8 C8.66 8.33 9.32 8.66 10 9 C9.67 9.99 9.34 10.98 9 12 C1.33257403 4.88610478 1.33257403 4.88610478 0 0 Z " fill="#CE8150" transform="translate(5,112)"/>
<path d="M0 0 C12.45170751 -0.92007691 12.45170751 -0.92007691 17.66015625 3.5625 C19.53203977 5.57081818 20.90912112 7.47734259 22 10 C21.67 10.66 21.34 11.32 21 12 C18.47411298 9.63707344 17.11179163 8.33537489 16 5 C11.43267059 1.04164784 5.76034548 1.29255695 0 1 C0 0.67 0 0.34 0 0 Z " fill="#CB8052" transform="translate(693,20)"/>
<path d="M0 0 C0.99 0.495 0.99 0.495 2 1 C2 1.66 2 2.32 2 3 C2.99 3.33 3.98 3.66 5 4 C4.938125 5.051875 4.87625 6.10375 4.8125 7.1875 C5.01122348 11.22821068 5.88406521 12.68810207 8 16 C7.67 16.99 7.34 17.98 7 19 C3.56203749 12.71456473 1.25353319 7.06536889 0 0 Z " fill="#CE8150" transform="translate(895,135)"/>
<path d="M0 0 C-0.33 0.66 -0.66 1.32 -1 2 C-2.65 2 -4.3 2 -6 2 C-6.33 3.32 -6.66 4.64 -7 6 C-9.475 5.01 -9.475 5.01 -12 4 C-12 3.01 -12 2.02 -12 1 C-7.58774263 -0.47075246 -4.51718381 -1.36884358 0 0 Z " fill="#DF7B3E" transform="translate(38,66)"/>
<path d="M0 0 C4.4995862 3.53538915 6.52801139 8.59066764 8 14 C7.67 14.99 7.34 15.98 7 17 C6.67 17 6.34 17 6 17 C5.71125 15.9275 5.4225 14.855 5.125 13.75 C3.94370381 9.68670746 3.94370381 9.68670746 2 6 C1.01 5.67 0.02 5.34 -1 5 C-0.67 3.35 -0.34 1.7 0 0 Z " fill="#CE824E" transform="translate(853,79)"/>
<path d="M0 0 C4.9723422 1.49170266 9.41845739 3.60457417 14 6 C9.77659176 7.28094579 7.12374365 6.64949746 3 5 C1.0625 2.375 1.0625 2.375 0 0 Z " fill="#CF824C" transform="translate(25,94)"/>
<path d="M0 0 C5.5 -0.36666667 5.5 -0.36666667 7.875 1.375 C9 3 9 3 9 5 C6.36 4.67 3.72 4.34 1 4 C0.67 2.68 0.34 1.36 0 0 Z " fill="#DE7E42" transform="translate(469,177)"/>
<path d="M0 0 C6.16356805 1.6658292 11.48259656 4.87805286 17 8 C15.1875 8.6171875 15.1875 8.6171875 13 9 C10.96166576 7.7260411 8.96147874 6.38938077 7 5 C4.77397385 4.23060319 4.77397385 4.23060319 3 4 C3 3.34 3 2.68 3 2 C2.01 2 1.02 2 0 2 C0 1.34 0 0.68 0 0 Z " fill="#CA8153" transform="translate(63,111)"/>
<path d="M0 0 C1.32 0 2.64 0 4 0 C4 0.66 4 1.32 4 2 C6.64 2 9.28 2 12 2 C12.66 3.65 13.32 5.3 14 7 C8.547001 5.43181728 4.23513217 3.96189783 0 0 Z " fill="#D37F50" transform="translate(22,128)"/>
<path d="M0 0 C5.28 0.66 10.56 1.32 16 2 C15.01 3.485 15.01 3.485 14 5 C9.38 4.01 4.76 3.02 0 2 C0 1.34 0 0.68 0 0 Z " fill="#CC8153" transform="translate(944,175)"/>
<path d="M0 0 C0.99 0.66 1.98 1.32 3 2 C2.67 2.66 2.34 3.32 2 4 C1.01 4 0.02 4 -1 4 C-1 5.32 -1 6.64 -1 8 C-1.99 7.67 -2.98 7.34 -4 7 C-4.33 6.01 -4.66 5.02 -5 4 C-3.35 2.68 -1.7 1.36 0 0 Z " fill="#E07E45" transform="translate(171,68)"/>
<path d="M0 0 C4.62 1.65 9.24 3.3 14 5 C12.02 5.99 12.02 5.99 10 7 C8.0625 6.25 8.0625 6.25 6 5 C5.113125 4.690625 4.22625 4.38125 3.3125 4.0625 C2.549375 3.711875 1.78625 3.36125 1 3 C0.67 2.01 0.34 1.02 0 0 Z " fill="#C97E52" transform="translate(456,170)"/>
<path d="M0 0 C1 2 1 2 0.58203125 3.8046875 C-0.99848876 8.05684793 -2.41094307 11.02974599 -6 14 C-4.45941767 8.98491285 -2.97068161 4.3852919 0 0 Z " fill="#C88053" transform="translate(273,90)"/>
<path d="M0 0 C0.66 0.33 1.32 0.66 2 1 C0.50260417 2.20442708 -0.99479167 3.40885417 -2.4921875 4.61328125 C-4.25292107 6.12270545 -4.25292107 6.12270545 -6 9 C-8.125 9.6875 -8.125 9.6875 -10 10 C-8.5741914 6.54804233 -6.90253666 4.8985744 -3.875 2.75 C-3.15054688 2.22921875 -2.42609375 1.7084375 -1.6796875 1.171875 C-1.12539063 0.78515625 -0.57109375 0.3984375 0 0 Z " fill="#CA7B53" transform="translate(922,71)"/>
<path d="M0 0 C1.65 0 3.3 0 5 0 C5.66 1.32 6.32 2.64 7 4 C4.69 4.33 2.38 4.66 0 5 C0 3.35 0 1.7 0 0 Z " fill="#DE7E44" transform="translate(621,65)"/>
<path d="M0 0 C2.31 0 4.62 0 7 0 C7 1.33333333 7 2.66666667 7 4 C4.69 4 2.38 4 0 4 C0 2.68 0 1.36 0 0 Z " fill="#E07D40" transform="translate(962,65)"/>
<path d="M0 0 C0.33 0 0.66 0 1 0 C1 2.31 1 4.62 1 7 C1.99 7 2.98 7 4 7 C3.67 7.99 3.34 8.98 3 10 C2.67 10 2.34 10 2 10 C1.67 11.98 1.34 13.96 1 16 C0.67 16 0.34 16 0 16 C0 10.72 0 5.44 0 0 Z " fill="#D37E4B" transform="translate(2,89)"/>
<path d="M0 0 C2.02045442 0.60183749 4.02111039 1.27306096 6 2 C6.33 2.66 6.66 3.32 7 4 C5.576875 4.4640625 5.576875 4.4640625 4.125 4.9375 C1.13919592 5.87394742 1.13919592 5.87394742 -1 7 C-0.67 4.69 -0.34 2.38 0 0 Z " fill="#D57F4E" transform="translate(509,69)"/>
<path d="M0 0 C3 1 3 1 4.01953125 2.7421875 C4.28121094 3.44601563 4.54289063 4.14984375 4.8125 4.875 C5.08707031 5.57367188 5.36164062 6.27234375 5.64453125 6.9921875 C6 9 6 9 4 12 C3.3291288 10.3767313 2.66342971 8.75132422 2 7.125 C1.62875 6.22007813 1.2575 5.31515625 0.875 4.3828125 C0 2 0 2 0 0 Z " fill="#C9804F" transform="translate(823,75)"/>
<path d="M0 0 C2.97 0.495 2.97 0.495 6 1 C6 1.99 6 2.98 6 4 C4.02 4 2.04 4 0 4 C-0.33 3.34 -0.66 2.68 -1 2 C-0.67 1.34 -0.34 0.68 0 0 Z " fill="#E27E41" transform="translate(16,71)"/>
<path d="M0 0 C0.66 0.33 1.32 0.66 2 1 C1.6875 2.875 1.6875 2.875 1 5 C0.01 5.66 -0.98 6.32 -2 7 C-2.6875 5.1875 -2.6875 5.1875 -3 3 C-1.5625 1.25 -1.5625 1.25 0 0 Z " fill="#CF7C4C" transform="translate(87,78)"/>
<path d="M0 0 C0.99 0 1.98 0 3 0 C3.53229326 1.26607607 4.05044544 2.53810412 4.5625 3.8125 C4.85253906 4.52019531 5.14257812 5.22789063 5.44140625 5.95703125 C6 8 6 8 5 11 C4.16151196 9.54462432 3.32936066 8.08559627 2.5 6.625 C1.80390625 5.40683594 1.80390625 5.40683594 1.09375 4.1640625 C0 2 0 2 0 0 Z " fill="#CA8051" transform="translate(499,75)"/>
<path d="M0 0 C1.67542976 0.28604898 3.34385343 0.61781233 5 1 C3.35 2.65 1.7 4.3 0 6 C-0.38218767 4.34385343 -0.71395102 2.67542976 -1 1 C-0.67 0.67 -0.34 0.34 0 0 Z " fill="#D08151" transform="translate(523,162)"/>
<path d="M0 0 C1.95582488 2.93373731 3.56224304 5.78216298 5 9 C4.67 9.66 4.34 10.32 4 11 C3.34 10.67 2.68 10.34 2 10 C1.66666667 8.66666667 1.33333333 7.33333333 1 6 C0.34 5.67 -0.32 5.34 -1 5 C-0.67 3.35 -0.34 1.7 0 0 Z " fill="#C98053" transform="translate(301,157)"/>
<path d="M0 0 C1.65 0 3.3 0 5 0 C4.25 4.75 4.25 4.75 2 7 C1.67 6.01 1.34 5.02 1 4 C1.33 3.67 1.66 3.34 2 3 C1.34 2.67 0.68 2.34 0 2 C0 1.34 0 0.68 0 0 Z " fill="#E0763C" transform="translate(305,70)"/>
<path d="M0 0 C0.33 0 0.66 0 1 0 C1.33 3.96 1.66 7.92 2 12 C1.34 12 0.68 12 0 12 C0 11.34 0 10.68 0 10 C-0.66 9.67 -1.32 9.34 -2 9 C-1.34 9 -0.68 9 0 9 C0 6.03 0 3.06 0 0 Z " fill="#D17E4A" transform="translate(299,146)"/>
<path d="M0 0 C0.33 0 0.66 0 1 0 C1.33 4.29 1.66 8.58 2 13 C1.01 12.67 0.02 12.34 -1 12 C-0.67 8.04 -0.34 4.08 0 0 Z " fill="#CD8050" transform="translate(929,143)"/>
<path d="M0 0 C0 3 0 3 -1 5 C0.32 5 1.64 5 3 5 C2.34 6.32 1.68 7.64 1 9 C0.67 8.01 0.34 7.02 0 6 C-0.66 6 -1.32 6 -2 6 C-1.125 1.125 -1.125 1.125 0 0 Z " fill="#D07D48" transform="translate(276,86)"/>
<path d="M0 0 C0.99 0.33 1.98 0.66 3 1 C1.68197635 4.64991166 0.40785992 6.7895201 -2 10 C-1.34 6.7 -0.68 3.4 0 0 Z " fill="#CF7F52" transform="translate(794,78)"/>
</svg>
