<svg xmlns="http://www.w3.org/2000/svg" xmlns:xlink="http://www.w3.org/1999/xlink" width="500" zoomAndPan="magnify" viewBox="0 0 375 149.999998" height="200" preserveAspectRatio="xMidYMid meet" version="1.0"><defs><g/></defs><g fill="#000000" fill-opacity="1"><g transform="translate(25.182331, 99.314174)"><g><path d="M 17.390625 0.453125 C 12.242188 0.453125 7.859375 -1.359375 4.234375 -4.984375 L 5.375 -6.125 C 8.539062 -2.800781 12.546875 -1.140625 17.390625 -1.140625 C 20.109375 -1.140625 22.328125 -1.71875 24.046875 -2.875 C 25.753906 -3.976562 26.609375 -5.085938 26.609375 -6.203125 C 26.609375 -7.515625 26.082031 -8.519531 25.03125 -9.21875 C 24.070312 -9.925781 22.03125 -10.9375 18.90625 -12.25 L 16.328125 -13.390625 C 13.203125 -14.742188 10.9375 -15.828125 9.53125 -16.640625 C 5.5 -18.898438 3.484375 -22.148438 3.484375 -26.390625 C 3.484375 -28.660156 4.210938 -30.625 5.671875 -32.28125 C 7.128906 -33.894531 9.09375 -35.082031 11.5625 -35.84375 C 13.632812 -36.445312 15.628906 -36.75 17.546875 -36.75 C 22.585938 -36.75 26.921875 -34.929688 30.546875 -31.296875 L 29.40625 -30.171875 C 26.082031 -33.492188 22.101562 -35.15625 17.46875 -35.15625 C 15.09375 -35.15625 13.078125 -34.726562 11.421875 -33.875 C 9.703125 -32.96875 8.71875 -32.035156 8.46875 -31.078125 C 8.414062 -30.921875 8.390625 -30.664062 8.390625 -30.3125 C 8.390625 -29.15625 9.046875 -28.148438 10.359375 -27.296875 C 11.617188 -26.441406 13.835938 -25.359375 17.015625 -24.046875 L 19.28125 -23.140625 C 24.019531 -21.171875 27.445312 -19.328125 29.5625 -17.609375 C 31.625 -15.847656 32.65625 -13.679688 32.65625 -11.109375 C 32.65625 -8.492188 31.648438 -6.175781 29.640625 -4.15625 C 26.566406 -1.082031 22.484375 0.453125 17.390625 0.453125 Z M 17.390625 0.453125 "/></g></g></g><g fill="#000000" fill-opacity="1"><g transform="translate(61.240931, 99.314174)"><g><path d="M 39.171875 -20.5625 L 39.171875 0 L 28.953125 0 L 28.953125 -22.765625 C 28.953125 -30.671875 27.210938 -34.625 23.734375 -34.625 C 22.222656 -34.625 20.8125 -33.992188 19.5 -32.734375 C 18.195312 -31.472656 17.316406 -29.882812 16.859375 -27.96875 C 16.503906 -26.507812 16.328125 -23.738281 16.328125 -19.65625 L 16.328125 0 L 6.125 0 L 6.125 -49.75 L 16.328125 -49.75 L 16.328125 -31.90625 C 18.597656 -35.132812 21.75 -36.75 25.78125 -36.75 C 29.863281 -36.75 33.085938 -35.410156 35.453125 -32.734375 C 37.929688 -29.960938 39.171875 -25.90625 39.171875 -20.5625 Z M 39.171875 -20.5625 "/></g></g></g><g fill="#000000" fill-opacity="1"><g transform="translate(106.52206, 99.314174)"><g><path d="M 30.765625 -36.296875 L 40.984375 -36.296875 L 40.984375 0 L 30.765625 0 L 30.765625 -1.515625 C 28.046875 -0.203125 25.25 0.453125 22.375 0.453125 C 17.238281 0.453125 12.851562 -1.359375 9.21875 -4.984375 C 5.59375 -8.617188 3.78125 -13.003906 3.78125 -18.140625 C 3.78125 -23.285156 5.59375 -27.671875 9.21875 -31.296875 C 12.851562 -34.929688 17.238281 -36.75 22.375 -36.75 C 25.40625 -36.75 28.203125 -36.066406 30.765625 -34.703125 Z M 30.765625 -3.328125 L 30.765625 -32.96875 C 28.097656 -34.425781 25.300781 -35.15625 22.375 -35.15625 C 19.8125 -35.15625 17.921875 -34.195312 16.703125 -32.28125 C 15.648438 -30.625 15 -28.785156 14.75 -26.765625 C 14.445312 -24.703125 14.296875 -21.828125 14.296875 -18.140625 C 14.296875 -15.316406 14.421875 -12.644531 14.671875 -10.125 C 14.867188 -7.957031 15.570312 -5.894531 16.78125 -3.9375 C 17.988281 -2.070312 19.851562 -1.140625 22.375 -1.140625 C 25.300781 -1.140625 28.097656 -1.867188 30.765625 -3.328125 Z M 30.765625 -3.328125 "/></g></g></g><g fill="#000000" fill-opacity="1"><g transform="translate(153.617462, 99.314174)"><g><path d="M 6.125 -49.75 L 16.328125 -49.75 L 16.328125 -34.703125 C 18.898438 -36.066406 21.695312 -36.75 24.71875 -36.75 C 29.863281 -36.75 34.25 -34.929688 37.875 -31.296875 C 41.507812 -27.671875 43.328125 -23.285156 43.328125 -18.140625 C 43.328125 -13.097656 41.507812 -8.710938 37.875 -4.984375 C 34.25 -1.359375 29.863281 0.453125 24.71875 0.453125 C 21.851562 0.453125 19.054688 -0.203125 16.328125 -1.515625 L 16.328125 0 L 6.125 0 Z M 24.71875 -1.140625 C 27.289062 -1.140625 29.132812 -2.070312 30.25 -3.9375 C 31.300781 -5.695312 31.976562 -7.609375 32.28125 -9.671875 C 32.582031 -11.742188 32.734375 -14.566406 32.734375 -18.140625 C 32.734375 -21.066406 32.609375 -23.738281 32.359375 -26.15625 C 32.160156 -28.375 31.476562 -30.414062 30.3125 -32.28125 C 29.15625 -34.195312 27.289062 -35.15625 24.71875 -35.15625 C 21.644531 -35.15625 18.847656 -34.425781 16.328125 -32.96875 L 16.328125 -3.328125 C 18.847656 -1.867188 21.644531 -1.140625 24.71875 -1.140625 Z M 24.71875 -1.140625 "/></g></g></g><g fill="#000000" fill-opacity="1"><g transform="translate(200.712864, 99.314174)"><g><path d="M 29.859375 -35.53125 L 29.265625 -34.09375 C 27.546875 -34.800781 25.851562 -35.15625 24.1875 -35.15625 C 22.53125 -35.15625 21.070312 -34.675781 19.8125 -33.71875 C 18.550781 -32.707031 17.691406 -31.550781 17.234375 -30.25 C 16.628906 -28.53125 16.328125 -26.1875 16.328125 -23.21875 L 16.328125 0 L 6.125 0 L 6.125 -36.296875 L 16.328125 -36.296875 L 16.328125 -33.578125 C 18.546875 -35.691406 21.164062 -36.75 24.1875 -36.75 C 26.007812 -36.75 27.898438 -36.34375 29.859375 -35.53125 Z M 29.859375 -35.53125 "/></g></g></g><g fill="#000000" fill-opacity="1"><g transform="translate(233.596491, 99.314174)"><g><path d="M 17.015625 0 L 6.875 0 L 6.875 -36.296875 L 17.015625 -36.296875 Z M 11.953125 -40.078125 C 10.535156 -40.078125 9.320312 -40.578125 8.3125 -41.578125 C 7.3125 -42.535156 6.8125 -43.722656 6.8125 -45.140625 C 6.8125 -46.503906 7.3125 -47.6875 8.3125 -48.6875 C 9.320312 -49.695312 10.535156 -50.203125 11.953125 -50.203125 C 13.304688 -50.203125 14.488281 -49.695312 15.5 -48.6875 C 16.507812 -47.6875 17.015625 -46.503906 17.015625 -45.140625 C 17.015625 -43.722656 16.535156 -42.535156 15.578125 -41.578125 C 14.566406 -40.578125 13.359375 -40.078125 11.953125 -40.078125 Z M 11.953125 -40.078125 "/></g></g></g><g fill="#000000" fill-opacity="1"><g transform="translate(257.40877, 99.314174)"><g><path d="M 39.171875 -20.5625 L 39.171875 0 L 28.953125 0 L 28.953125 -22.765625 C 28.953125 -30.671875 27.210938 -34.625 23.734375 -34.625 C 22.273438 -34.625 20.863281 -33.992188 19.5 -32.734375 C 18.144531 -31.421875 17.265625 -29.832031 16.859375 -27.96875 C 16.503906 -26.507812 16.328125 -23.738281 16.328125 -19.65625 L 16.328125 0 L 6.125 0 L 6.125 -36.296875 L 16.328125 -36.296875 L 16.328125 -31.90625 C 18.546875 -35.132812 21.671875 -36.75 25.703125 -36.75 C 29.890625 -36.75 33.140625 -35.410156 35.453125 -32.734375 C 37.929688 -29.960938 39.171875 -25.90625 39.171875 -20.5625 Z M 39.171875 -20.5625 "/></g></g></g><g fill="#000000" fill-opacity="1"><g transform="translate(302.689899, 99.314174)"><g><path d="M 30.765625 -36.296875 L 40.984375 -36.296875 L 40.984375 0 L 30.765625 0 L 30.765625 -1.515625 C 28.046875 -0.203125 25.25 0.453125 22.375 0.453125 C 17.238281 0.453125 12.851562 -1.359375 9.21875 -4.984375 C 5.59375 -8.617188 3.78125 -13.003906 3.78125 -18.140625 C 3.78125 -23.285156 5.59375 -27.671875 9.21875 -31.296875 C 12.851562 -34.929688 17.238281 -36.75 22.375 -36.75 C 25.40625 -36.75 28.203125 -36.066406 30.765625 -34.703125 Z M 30.765625 -3.328125 L 30.765625 -32.96875 C 28.097656 -34.425781 25.300781 -35.15625 22.375 -35.15625 C 19.8125 -35.15625 17.921875 -34.195312 16.703125 -32.28125 C 15.648438 -30.625 15 -28.785156 14.75 -26.765625 C 14.445312 -24.703125 14.296875 -21.828125 14.296875 -18.140625 C 14.296875 -15.316406 14.421875 -12.644531 14.671875 -10.125 C 14.867188 -7.957031 15.570312 -5.894531 16.78125 -3.9375 C 17.988281 -2.070312 19.851562 -1.140625 22.375 -1.140625 C 25.300781 -1.140625 28.097656 -1.867188 30.765625 -3.328125 Z M 30.765625 -3.328125 "/></g></g></g></svg>